name Run_40002_IK.mot
datacolumns 164
datarows 4
range 1.71 1.74
endheader
time	         pelvis_tilt	         pelvis_list	     pelvis_rotation	           pelvis_tx	           pelvis_ty	           pelvis_tz	       hip_flexion_r	     hip_adduction_r	      hip_rotation_r	        knee_angle_r	       ankle_angle_r	       hip_flexion_l	     hip_adduction_l	      hip_rotation_l	        knee_angle_l	       ankle_angle_l	    lumbar_extension	      lumbar_bending	     lumbar_rotation	          arm_flex_r	           arm_add_r	           arm_rot_r	        elbow_flex_r	           pro_sup_r	          arm_flex_l	           arm_add_l	           arm_rot_l	        elbow_flex_l	           pro_sup_l	    subtalar_angle_r	         mtp_angle_r	    subtalar_angle_l	         mtp_angle_l	        wrist_flex_r	         wrist_dev_r	        wrist_flex_l	         wrist_dev_l	             LASI_tx	             LASI_ty	             LASI_tz	             RASI_tx	             RASI_ty	             RASI_tz	             LPSI_tx	             LPSI_ty	             LPSI_tz	             RPSI_tx	             RPSI_ty	             RPSI_tz	             RTH1_tx	             RTH1_ty	             RTH1_tz	             RTH2_tx	             RTH2_ty	             RTH2_tz	             RTH3_tx	             RTH3_ty	             RTH3_tz	             LTH1_tx	             LTH1_ty	             LTH1_tz	             LTH2_tx	             LTH2_ty	             LTH2_tz	             LTH3_tx	             LTH3_ty	             LTH3_tz	             RTB1_tx	             RTB1_ty	             RTB1_tz	             RTB2_tx	             RTB2_ty	             RTB2_tz	             RTB3_tx	             RTB3_ty	             RTB3_tz	             LTB1_tx	             LTB1_ty	             LTB1_tz	             LTB2_tx	             LTB2_ty	             LTB2_tz	             LTB3_tx	             LTB3_ty	             LTB3_tz	             RCAL_tx	             RCAL_ty	             RCAL_tz	             RTOE_tx	             RTOE_ty	             RTOE_tz	             RMT5_tx	             RMT5_ty	             RMT5_tz	             LCAL_tx	             LCAL_ty	             LCAL_tz	             LTOE_tx	             LTOE_ty	             LTOE_tz	             LMT5_tx	             LMT5_ty	             LMT5_tz	             LACR_tx	             LACR_ty	             LACR_tz	             RACR_tx	             RACR_ty	             RACR_tz	             CLAV_tx	             CLAV_ty	             CLAV_tz	               C7_tx	               C7_ty	               C7_tz	             RUA1_tx	             RUA1_ty	             RUA1_tz	             RUA2_tx	             RUA2_ty	             RUA2_tz	             RUA3_tx	             RUA3_ty	             RUA3_tz	             RLEL_tx	             RLEL_ty	             RLEL_tz	             RMEL_tx	             RMEL_ty	             RMEL_tz	             LUA1_tx	             LUA1_ty	             LUA1_tz	             LUA2_tx	             LUA2_ty	             LUA2_tz	             LUA3_tx	             LUA3_ty	             LUA3_tz	             LLEL_tx	             LLEL_ty	             LLEL_tz	             LMEL_tx	             LMEL_ty	             LMEL_tz	      RFAsuperior_tx	      RFAsuperior_ty	      RFAsuperior_tz	        RFAradius_tx	        RFAradius_ty	        RFAradius_tz	          RFAulna_tx	          RFAulna_ty	          RFAulna_tz	      LFAsuperior_tx	      LFAsuperior_ty	      LFAsuperior_tz	        LFAradius_tx	        LFAradius_ty	        LFAradius_tz	          LFAulna_tx	          LFAulna_ty	          LFAulna_tz	
1.71	        -14.23093903	          0.23180017	         -0.50923355	          0.94827192	          0.97880625	         -0.35434683	         15.18003902	          3.60055889	         -1.78052159	        -34.02165881	         22.18229577	         51.03232946	          2.11847366	         -0.42912004	       -102.80309236	          4.70437697	         -0.66770408	          4.45618337	         10.07297454	        -16.15012960	        -25.92490346	         -8.90823143	        108.31671964	        108.49378040	        -37.01880912	        -17.98074803	         -0.71512870	        103.73330880	        104.41201278	          0.00000000	          0.00000000	          0.00000000	          0.00000000	          0.00000000	          0.00000000	          0.00000000	          0.00000000	          0.96488838	          1.02325199	         -0.49516830	          0.96382277	          1.01215554	         -0.22303454	          0.81309239	          1.08560066	         -0.40919219	          0.80751051	          1.07979249	         -0.29646906	          0.87393082	          0.90056927	         -0.17634254	          0.81647010	          0.75693539	         -0.20534012	          0.85534170	          0.60033701	         -0.21991606	          0.93665287	          0.90097074	         -0.52879176	          0.94499450	          0.74516658	         -0.50272120	          1.06268020	          0.65541796	         -0.50073287	          0.83963287	          0.34808248	         -0.30479076	          0.74904909	          0.33985282	         -0.23606653	          0.71564276	          0.20196362	         -0.32464321	          1.06266477	          0.46967245	         -0.43476857	          0.92732552	          0.49460533	         -0.49306054	          0.85746044	          0.39873797	         -0.43595360	          0.53729244	          0.13144068	         -0.32665476	          0.76965387	          0.06948365	         -0.35578914	          0.71668178	          0.05020504	         -0.26074516	          0.67477733	          0.45003901	         -0.41653759	          0.77700580	          0.23549455	         -0.40807614	          0.72146279	          0.25742128	         -0.50371020	          0.95213249	          1.51572716	         -0.48179994	          1.00551077	          1.47386091	         -0.16425143	          1.04405982	          1.44909606	         -0.30045758	          0.91643291	          1.52611391	         -0.31773220	          0.91824206	          1.36990590	         -0.08410171	          0.96595327	          1.31118278	         -0.07048144	          0.91287116	          1.23168372	         -0.01813517	          0.89347195	          1.17083989	          0.01349810	          0.87749605	          1.14367371	         -0.07173053	          0.83119122	          1.44881928	         -0.52703210	          0.83846425	          1.37625218	         -0.57296005	          0.74994458	          1.33887236	         -0.59477904	          0.71361776	          1.28431640	         -0.62252971	          0.69536935	          1.25965147	         -0.53718093	          0.99157900	          1.12703470	         -0.01420316	          1.11815742	          1.11550002	         -0.14349736	          1.11602395	          1.06316432	         -0.09810212	          0.75518779	          1.20705775	         -0.62612649	          0.90901662	          1.12609875	         -0.54585346	          0.87452921	          1.07797864	         -0.58648505	
1.72	        -14.49364272	          0.79584089	         -0.08163913	          0.95037961	          0.98463549	         -0.35416099	         11.10297996	          2.91253480	         -1.84154433	        -30.29618724	         18.75921894	         52.90939071	          2.74820246	         -0.74108486	        -98.94788552	          5.20068570	          0.07288175	          3.48493826	         10.61657035	        -15.42588433	        -25.30253517	         -8.54905352	        111.13832896	        109.03050349	        -39.28286374	        -18.43492501	         -1.83514285	        106.09901914	        104.93871873	          0.00000000	          0.00000000	          0.00000000	          0.00000000	          0.00000000	          0.00000000	          0.00000000	          0.00000000	          0.96625341	          1.02932465	         -0.49371946	          0.96668802	          1.01573739	         -0.22267369	          0.81442958	          1.09185255	         -0.40761002	          0.81005040	          1.08520331	         -0.29510977	          0.87342974	          0.90508693	         -0.17719679	          0.80661809	          0.76524232	         -0.20435669	          0.83407571	          0.60693923	         -0.22009132	          0.93925565	          0.91093567	         -0.52989243	          0.95120776	          0.75455870	         -0.50236688	          1.07222612	          0.66955634	         -0.50061149	          0.80712063	          0.35442657	         -0.30274999	          0.71627364	          0.34831481	         -0.23528309	          0.68240174	          0.20997168	         -0.32452226	          1.08356961	          0.47943718	         -0.43443270	          0.94607190	          0.49191222	         -0.49179534	          0.88498515	          0.38917229	         -0.43446700	          0.50380972	          0.14452715	         -0.32444588	          0.73007612	          0.06895421	         -0.35621726	          0.67686840	          0.05098467	         -0.26114199	          0.69883429	          0.42221192	         -0.41389050	          0.82309771	          0.21948446	         -0.40683200	          0.76443489	          0.23532720	         -0.50151033	          0.94901988	          1.52288663	         -0.48198705	          1.00737538	          1.48190421	         -0.16573987	          1.04428621	          1.45649386	         -0.30282465	          0.91610054	          1.53204247	         -0.31787276	          0.92285270	          1.37647602	         -0.08484981	          0.97174955	          1.31852324	         -0.07243205	          0.92164610	          1.23728427	         -0.02034179	          0.90402763	          1.17534967	          0.01064167	          0.88679834	          1.14955114	         -0.07498014	          0.82610255	          1.45970554	         -0.52427835	          0.83089856	          1.38723535	         -0.57154467	          0.74127522	          1.35176869	         -0.59188827	          0.70285919	          1.29833081	         -0.61825532	          0.68615260	          1.27341857	         -0.53269318	          1.00342295	          1.13804723	         -0.02101939	          1.12619691	          1.13745517	         -0.15409195	          1.12906861	          1.08404776	         -0.11009034	          0.74487519	          1.22234965	         -0.62293275	          0.90046403	          1.14260626	         -0.54628415	          0.86621335	          1.09431624	         -0.58679172	
1.73	        -14.73290750	          1.35190997	          0.49330423	          0.95304703	          0.99093632	         -0.35378315	          7.04567177	          2.21601643	         -2.19855895	        -26.44476989	         14.17548227	         54.34642490	          3.35429244	         -1.15338818	        -94.54331713	          5.67918706	          0.81778803	          2.45600572	         10.82639372	        -14.75852655	        -24.57647365	         -8.03553333	        113.92862794	        109.81868892	        -41.66240505	        -18.75667461	         -3.18059871	        108.45920000	        105.42680158	          0.00000000	          0.00000000	          0.00000000	          0.00000000	          0.00000000	          0.00000000	          0.00000000	          0.00000000	          0.96773302	          1.03586511	         -0.49202528	          0.97043668	          1.01984287	         -0.22152120	          0.81592964	          1.09857032	         -0.40578725	          0.81353703	          1.09117447	         -0.29335127	          0.87457672	          0.91020338	         -0.17798870	          0.79807161	          0.77476404	         -0.20331182	          0.81399258	          0.61601326	         -0.21987026	          0.94171634	          0.92114110	         -0.53087865	          0.95646681	          0.76426703	         -0.50162244	          1.07968700	          0.68319115	         -0.50023463	          0.77631343	          0.36337909	         -0.30039856	          0.68508225	          0.35924742	         -0.23404286	          0.65121353	          0.22006762	         -0.32306080	          1.10259383	          0.48898833	         -0.43481827	          0.96365567	          0.48860136	         -0.48976285	          0.91309237	          0.37935257	         -0.43247432	          0.47352121	          0.16019090	         -0.32200938	          0.69113794	          0.06821654	         -0.35573629	          0.63787330	          0.05224278	         -0.26094387	          0.72538685	          0.39317702	         -0.40901994	          0.87052643	          0.20472583	         -0.40598273	          0.80870116	          0.21468987	         -0.49916203	          0.94656157	          1.53047489	         -0.48226289	          1.00911072	          1.49046661	         -0.16751611	          1.04455272	          1.46460459	         -0.30537586	          0.91594794	          1.53852487	         -0.31800166	          0.92646263	          1.38369944	         -0.08611583	          0.97711626	          1.32645232	         -0.07458144	          0.92986885	          1.24378699	         -0.02257360	          0.91358207	          1.18089562	          0.00760791	          0.89489296	          1.15645601	         -0.07821797	          0.82203620	          1.47120016	         -0.52184420	          0.82447827	          1.39841644	         -0.56979166	          0.73373000	          1.36505334	         -0.58856410	          0.69314260	          1.31273358	         -0.61356720	          0.67815400	          1.28773399	         -0.52774325	          1.01354309	          1.14971097	         -0.02782943	          1.13196269	          1.15996863	         -0.16416564	          1.13969617	          1.10597884	         -0.12150449	          0.73525738	          1.23759447	         -0.61932431	          0.89290549	          1.15936783	         -0.54624555	          0.85883617	          1.11081648	         -0.58669109	
1.74	        -14.93511528	          1.89510393	          1.25131975	          0.95594490	          0.99747292	         -0.35344835	          3.11873599	          1.54633123	         -2.97843957	        -22.67953321	          8.55546455	         55.36141806	          3.96269351	         -1.70923859	        -89.63410217	          6.05556137	          1.48013683	          1.38599633	         10.72627916	        -14.19237622	        -23.84090215	         -7.39031732	        116.72428602	        110.61664315	        -44.03898255	        -18.94015324	         -4.62270928	        110.73920581	        105.46340710	          0.00000000	          0.00000000	          0.00000000	          0.00000000	          0.00000000	          0.00000000	          0.00000000	          0.00000000	          0.96899891	          1.04272423	         -0.49010961	          0.97475663	          1.02426906	         -0.22072856	          0.81727479	          1.10560394	         -0.40374166	          0.81757629	          1.09740893	         -0.29125279	          0.87684502	          0.91567664	         -0.17864039	          0.79073704	          0.78513256	         -0.20215513	          0.79560462	          0.62699760	         -0.21918796	          0.94365434	          0.93105471	         -0.53177114	          0.96072774	          0.77402816	         -0.50049943	          1.08511269	          0.69588496	         -0.49961395	          0.74769134	          0.37442590	         -0.29799181	          0.65585490	          0.37209789	         -0.23245270	          0.62246743	          0.23165439	         -0.32012895	          1.11958687	          0.49806152	         -0.43633165	          0.97985702	          0.48459523	         -0.48695734	          0.94204611	          0.36944792	         -0.43021765	          0.44662453	          0.17806192	         -0.31962113	          0.65297009	          0.06744314	         -0.35485112	          0.59961053	          0.05421393	         -0.26057124	          0.75468904	          0.36339770	         -0.40205696	          0.91901872	          0.19152332	         -0.40556754	          0.85363569	          0.19547598	         -0.49651331	          0.94472500	          1.53821494	         -0.48252744	          1.01087192	          1.49902472	         -0.16965199	          1.04481361	          1.47282180	         -0.30809060	          0.91597331	          1.54516691	         -0.31816694	          0.92986003	          1.39152616	         -0.08734419	          0.98215535	          1.33469375	         -0.07685799	          0.93744048	          1.25099212	         -0.02463987	          0.92217994	          1.18727108	          0.00465850	          0.90179831	          1.16404884	         -0.08115485	          0.81890698	          1.48270803	         -0.51974094	          0.81914229	          1.40948798	         -0.56783895	          0.72718971	          1.37848568	         -0.58479435	          0.68453529	          1.32715828	         -0.60853309	          0.67153621	          1.30208504	         -0.52250256	          1.02210747	          1.16192331	         -0.03444856	          1.13567581	          1.18245447	         -0.17349203	          1.14792859	          1.12823024	         -0.13218922	          0.72651016	          1.25246937	         -0.61536164	          0.88641148	          1.17586867	         -0.54602002	          0.85219906	          1.12683618	         -0.58594901	
